solid OpenSCAD_Model
  facet normal 0.9945218481616123 0.10452891240805602 0
    outer loop
      vertex 10 0 169
      vertex 9.781475067138672 2.0791168212890625 0
      vertex 9.781475067138672 2.0791168212890625 169
    endloop
  endfacet
  facet normal 0.9945218481616123 0.10452891240805602 0
    outer loop
      vertex 9.781475067138672 2.0791168212890625 0
      vertex 10 0 169
      vertex 10 0 0
    endloop
  endfacet
  facet normal 0.9945218481616123 0.10452891240805602 0
    outer loop
      vertex 10 0 200
      vertex 9.781475067138672 2.0791168212890625 199
      vertex 9.781475067138672 2.0791168212890625 200
    endloop
  endfacet
  facet normal 0.9945218481616123 0.10452891240805602 0
    outer loop
      vertex 9.781475067138672 2.0791168212890625 199
      vertex 10 0 200
      vertex 10 0 199
    endloop
  endfacet
  facet normal -0.9945218481616123 -0.10452891240805602 0
    outer loop
      vertex -9.781475067138672 -2.0791168212890625 0
      vertex -10 0 169
      vertex -10 0 0
    endloop
  endfacet
  facet normal -0.9945218481616123 -0.10452891240805602 0
    outer loop
      vertex -10 0 169
      vertex -9.781475067138672 -2.0791168212890625 0
      vertex -9.781475067138672 -2.0791168212890625 169
    endloop
  endfacet
  facet normal -0.9945218481616123 -0.10452891240805602 0
    outer loop
      vertex -9.781475067138672 -2.0791168212890625 199
      vertex -10 0 200
      vertex -10 0 199
    endloop
  endfacet
  facet normal -0.9945218481616123 -0.10452891240805602 0
    outer loop
      vertex -10 0 200
      vertex -9.781475067138672 -2.0791168212890625 199
      vertex -9.781475067138672 -2.0791168212890625 200
    endloop
  endfacet
  facet normal 0.9510565605773597 0.3090168580882972 0
    outer loop
      vertex 9.781475067138672 2.0791168212890625 200
      vertex 9.135454177856445 4.067365646362305 199
      vertex 9.135454177856445 4.067365646362305 200
    endloop
  endfacet
  facet normal 0.9510565605773597 0.3090168580882972 0
    outer loop
      vertex 9.135454177856445 4.067365646362305 199
      vertex 9.781475067138672 2.0791168212890625 200
      vertex 9.781475067138672 2.0791168212890625 199
    endloop
  endfacet
  facet normal 0.9510565605773598 0.3090168580882972 0
    outer loop
      vertex 9.781475067138672 2.0791168212890625 169
      vertex 9.135454177856445 4.067365646362305 0
      vertex 9.135454177856445 4.067365646362305 169
    endloop
  endfacet
  facet normal 0.9510565605773598 0.3090168580882972 0
    outer loop
      vertex 9.135454177856445 4.067365646362305 0
      vertex 9.781475067138672 2.0791168212890625 169
      vertex 9.781475067138672 2.0791168212890625 0
    endloop
  endfacet
  facet normal 0.8660255625183251 0.49999972506474305 0
    outer loop
      vertex 9.135454177856445 4.067365646362305 200
      vertex 8.090169906616211 5.877852439880371 199
      vertex 8.090169906616211 5.877852439880371 200
    endloop
  endfacet
  facet normal 0.8660255625183251 0.49999972506474305 0
    outer loop
      vertex 8.090169906616211 5.877852439880371 199
      vertex 9.135454177856445 4.067365646362305 200
      vertex 9.135454177856445 4.067365646362305 199
    endloop
  endfacet
  facet normal 0.8660255625183251 0.49999972506474305 0
    outer loop
      vertex 9.135454177856445 4.067365646362305 169
      vertex 8.090169906616211 5.877852439880371 0
      vertex 8.090169906616211 5.877852439880371 169
    endloop
  endfacet
  facet normal 0.8660255625183251 0.49999972506474305 0
    outer loop
      vertex 8.090169906616211 5.877852439880371 0
      vertex 9.135454177856445 4.067365646362305 169
      vertex 9.135454177856445 4.067365646362305 0
    endloop
  endfacet
  facet normal 0 0 1
    outer loop
      vertex 9.781475067138672 2.0791168212890625 200
      vertex 9.781475067138672 -2.0791168212890625 200
      vertex 10 0 200
    endloop
  endfacet
  facet normal 0 0 1
    outer loop
      vertex 9.135454177856445 4.067365646362305 200
      vertex 9.781475067138672 -2.0791168212890625 200
      vertex 9.781475067138672 2.0791168212890625 200
    endloop
  endfacet
  facet normal 0 0 1
    outer loop
      vertex 9.135454177856445 4.067365646362305 200
      vertex 9.135454177856445 -4.067365646362305 200
      vertex 9.781475067138672 -2.0791168212890625 200
    endloop
  endfacet
  facet normal 0 0 1
    outer loop
      vertex 8.090169906616211 5.877852439880371 200
      vertex 9.135454177856445 -4.067365646362305 200
      vertex 9.135454177856445 4.067365646362305 200
    endloop
  endfacet
  facet normal 0 0 1
    outer loop
      vertex 8.090169906616211 5.877852439880371 200
      vertex 8.090169906616211 -5.877852439880371 200
      vertex 9.135454177856445 -4.067365646362305 200
    endloop
  endfacet
  facet normal 0 0 1
    outer loop
      vertex 6.691305160522461 7.431447982788086 200
      vertex 8.090169906616211 -5.877852439880371 200
      vertex 8.090169906616211 5.877852439880371 200
    endloop
  endfacet
  facet normal 0 0 1
    outer loop
      vertex 6.691305160522461 7.431447982788086 200
      vertex 6.691305160522461 -7.431447982788086 200
      vertex 8.090169906616211 -5.877852439880371 200
    endloop
  endfacet
  facet normal 0 0 1
    outer loop
      vertex 5 8.660253524780273 200
      vertex 6.691305160522461 -7.431447982788086 200
      vertex 6.691305160522461 7.431447982788086 200
    endloop
  endfacet
  facet normal 0 0 1
    outer loop
      vertex 5 8.660253524780273 200
      vertex 5 -8.660253524780273 200
      vertex 6.691305160522461 -7.431447982788086 200
    endloop
  endfacet
  facet normal 0 0 1
    outer loop
      vertex 3.090169906616211 9.510564804077148 200
      vertex 5 -8.660253524780273 200
      vertex 5 8.660253524780273 200
    endloop
  endfacet
  facet normal 0 0 1
    outer loop
      vertex 3.090169906616211 9.510564804077148 200
      vertex 3.090169906616211 -9.510564804077148 200
      vertex 5 -8.660253524780273 200
    endloop
  endfacet
  facet normal 0 0 1
    outer loop
      vertex 1.0452842712402344 9.945218086242676 200
      vertex 3.090169906616211 -9.510564804077148 200
      vertex 3.090169906616211 9.510564804077148 200
    endloop
  endfacet
  facet normal 0 0 1
    outer loop
      vertex 1.0452842712402344 9.945218086242676 200
      vertex 1.0452842712402344 -9.945218086242676 200
      vertex 3.090169906616211 -9.510564804077148 200
    endloop
  endfacet
  facet normal 0 0 1
    outer loop
      vertex -1.0452842712402344 9.945218086242676 200
      vertex 1.0452842712402344 -9.945218086242676 200
      vertex 1.0452842712402344 9.945218086242676 200
    endloop
  endfacet
  facet normal 0 0 1
    outer loop
      vertex -1.0452842712402344 9.945218086242676 200
      vertex -1.0452842712402344 -9.945218086242676 200
      vertex 1.0452842712402344 -9.945218086242676 200
    endloop
  endfacet
  facet normal 0 0 1
    outer loop
      vertex -3.090169906616211 9.510564804077148 200
      vertex -1.0452842712402344 -9.945218086242676 200
      vertex -1.0452842712402344 9.945218086242676 200
    endloop
  endfacet
  facet normal 0 0 1
    outer loop
      vertex -3.090169906616211 9.510564804077148 200
      vertex -3.090169906616211 -9.510564804077148 200
      vertex -1.0452842712402344 -9.945218086242676 200
    endloop
  endfacet
  facet normal 0 0 1
    outer loop
      vertex -5 8.660253524780273 200
      vertex -3.090169906616211 -9.510564804077148 200
      vertex -3.090169906616211 9.510564804077148 200
    endloop
  endfacet
  facet normal 0 0 1
    outer loop
      vertex -5 8.660253524780273 200
      vertex -5 -8.660253524780273 200
      vertex -3.090169906616211 -9.510564804077148 200
    endloop
  endfacet
  facet normal 0 0 1
    outer loop
      vertex -6.691305160522461 7.431447982788086 200
      vertex -5 -8.660253524780273 200
      vertex -5 8.660253524780273 200
    endloop
  endfacet
  facet normal 0 0 1
    outer loop
      vertex -6.691305160522461 7.431447982788086 200
      vertex -6.691305160522461 -7.431447982788086 200
      vertex -5 -8.660253524780273 200
    endloop
  endfacet
  facet normal 0 0 1
    outer loop
      vertex -8.090169906616211 5.877852439880371 200
      vertex -6.691305160522461 -7.431447982788086 200
      vertex -6.691305160522461 7.431447982788086 200
    endloop
  endfacet
  facet normal 0 0 1
    outer loop
      vertex -8.090169906616211 5.877852439880371 200
      vertex -8.090169906616211 -5.877852439880371 200
      vertex -6.691305160522461 -7.431447982788086 200
    endloop
  endfacet
  facet normal 0 0 1
    outer loop
      vertex -9.135454177856445 4.067365646362305 200
      vertex -8.090169906616211 -5.877852439880371 200
      vertex -8.090169906616211 5.877852439880371 200
    endloop
  endfacet
  facet normal 0 0 1
    outer loop
      vertex -9.135454177856445 4.067365646362305 200
      vertex -9.135454177856445 -4.067365646362305 200
      vertex -8.090169906616211 -5.877852439880371 200
    endloop
  endfacet
  facet normal 0 0 1
    outer loop
      vertex -9.781475067138672 2.0791168212890625 200
      vertex -9.135454177856445 -4.067365646362305 200
      vertex -9.135454177856445 4.067365646362305 200
    endloop
  endfacet
  facet normal 0 0 1
    outer loop
      vertex -9.781475067138672 2.0791168212890625 200
      vertex -9.781475067138672 -2.0791168212890625 200
      vertex -9.135454177856445 -4.067365646362305 200
    endloop
  endfacet
  facet normal 0 0 1
    outer loop
      vertex -9.781475067138672 -2.0791168212890625 200
      vertex -9.781475067138672 2.0791168212890625 200
      vertex -10 0 200
    endloop
  endfacet
  facet normal 0 -1 0
    outer loop
      vertex -1.0452842712402344 -9.945218086242676 199
      vertex 1.0452842712402344 -9.945218086242676 200
      vertex -1.0452842712402344 -9.945218086242676 200
    endloop
  endfacet
  facet normal 0 -1 0
    outer loop
      vertex 1.0452842712402344 -9.945218086242676 200
      vertex -1.0452842712402344 -9.945218086242676 199
      vertex 1.0452842712402344 -9.945218086242676 199
    endloop
  endfacet
  facet normal 0 -1 0
    outer loop
      vertex -1.0452842712402344 -9.945218086242676 0
      vertex 1.0452842712402344 -9.945218086242676 169
      vertex -1.0452842712402344 -9.945218086242676 169
    endloop
  endfacet
  facet normal 0 -1 0
    outer loop
      vertex 1.0452842712402344 -9.945218086242676 169
      vertex -1.0452842712402344 -9.945218086242676 0
      vertex 1.0452842712402344 -9.945218086242676 0
    endloop
  endfacet
  facet normal -0.587785382231143 0.8090168999689616 0
    outer loop
      vertex -5 8.660253524780273 199
      vertex -6.691305160522461 7.431447982788086 200
      vertex -5 8.660253524780273 200
    endloop
  endfacet
  facet normal -0.587785382231143 0.8090168999689616 0
    outer loop
      vertex -6.691305160522461 7.431447982788086 200
      vertex -5 8.660253524780273 199
      vertex -6.691305160522461 7.431447982788086 199
    endloop
  endfacet
  facet normal -0.587785382231143 0.8090168999689618 0
    outer loop
      vertex -5 8.660253524780273 0
      vertex -6.691305160522461 7.431447982788086 169
      vertex -5 8.660253524780273 169
    endloop
  endfacet
  facet normal -0.587785382231143 0.8090168999689618 0
    outer loop
      vertex -6.691305160522461 7.431447982788086 169
      vertex -5 8.660253524780273 0
      vertex -6.691305160522461 7.431447982788086 0
    endloop
  endfacet
  facet normal 0.587785382231143 0.8090168999689616 0
    outer loop
      vertex 6.691305160522461 7.431447982788086 199
      vertex 5 8.660253524780273 200
      vertex 6.691305160522461 7.431447982788086 200
    endloop
  endfacet
  facet normal 0.587785382231143 0.8090168999689616 0
    outer loop
      vertex 5 8.660253524780273 200
      vertex 6.691305160522461 7.431447982788086 199
      vertex 5 8.660253524780273 199
    endloop
  endfacet
  facet normal 0.587785382231143 0.8090168999689618 0
    outer loop
      vertex 6.691305160522461 7.431447982788086 0
      vertex 5 8.660253524780273 169
      vertex 6.691305160522461 7.431447982788086 169
    endloop
  endfacet
  facet normal 0.587785382231143 0.8090168999689618 0
    outer loop
      vertex 5 8.660253524780273 169
      vertex 6.691305160522461 7.431447982788086 0
      vertex 5 8.660253524780273 0
    endloop
  endfacet
  facet normal -0.7431445790419065 0.6691308800530937 0
    outer loop
      vertex -8.090169906616211 5.877852439880371 199
      vertex -6.691305160522461 7.431447982788086 200
      vertex -6.691305160522461 7.431447982788086 199
    endloop
  endfacet
  facet normal -0.7431445790419065 0.6691308800530937 0
    outer loop
      vertex -6.691305160522461 7.431447982788086 200
      vertex -8.090169906616211 5.877852439880371 199
      vertex -8.090169906616211 5.877852439880371 200
    endloop
  endfacet
  facet normal -0.7431445790419063 0.6691308800530937 0
    outer loop
      vertex -8.090169906616211 5.877852439880371 0
      vertex -6.691305160522461 7.431447982788086 169
      vertex -6.691305160522461 7.431447982788086 0
    endloop
  endfacet
  facet normal -0.7431445790419063 0.6691308800530937 0
    outer loop
      vertex -6.691305160522461 7.431447982788086 169
      vertex -8.090169906616211 5.877852439880371 0
      vertex -8.090169906616211 5.877852439880371 169
    endloop
  endfacet
  facet normal -0.8660255625183251 0.49999972506474305 0
    outer loop
      vertex -9.135454177856445 4.067365646362305 0
      vertex -8.090169906616211 5.877852439880371 169
      vertex -8.090169906616211 5.877852439880371 0
    endloop
  endfacet
  facet normal -0.8660255625183251 0.49999972506474305 0
    outer loop
      vertex -8.090169906616211 5.877852439880371 169
      vertex -9.135454177856445 4.067365646362305 0
      vertex -9.135454177856445 4.067365646362305 169
    endloop
  endfacet
  facet normal -0.8660255625183251 0.49999972506474305 0
    outer loop
      vertex -9.135454177856445 4.067365646362305 199
      vertex -8.090169906616211 5.877852439880371 200
      vertex -8.090169906616211 5.877852439880371 199
    endloop
  endfacet
  facet normal -0.8660255625183251 0.49999972506474305 0
    outer loop
      vertex -8.090169906616211 5.877852439880371 200
      vertex -9.135454177856445 4.067365646362305 199
      vertex -9.135454177856445 4.067365646362305 200
    endloop
  endfacet
  facet normal 0.8660255625183251 -0.49999972506474305 0
    outer loop
      vertex 8.090169906616211 -5.877852439880371 200
      vertex 9.135454177856445 -4.067365646362305 199
      vertex 9.135454177856445 -4.067365646362305 200
    endloop
  endfacet
  facet normal 0.8660255625183251 -0.49999972506474305 0
    outer loop
      vertex 9.135454177856445 -4.067365646362305 199
      vertex 8.090169906616211 -5.877852439880371 200
      vertex 8.090169906616211 -5.877852439880371 199
    endloop
  endfacet
  facet normal 0.8660255625183251 -0.49999972506474305 0
    outer loop
      vertex 8.090169906616211 -5.877852439880371 169
      vertex 9.135454177856445 -4.067365646362305 0
      vertex 9.135454177856445 -4.067365646362305 169
    endloop
  endfacet
  facet normal 0.8660255625183251 -0.49999972506474305 0
    outer loop
      vertex 9.135454177856445 -4.067365646362305 0
      vertex 8.090169906616211 -5.877852439880371 169
      vertex 8.090169906616211 -5.877852439880371 0
    endloop
  endfacet
  facet normal 0.7431445790419063 -0.6691308800530937 0
    outer loop
      vertex 6.691305160522461 -7.431447982788086 169
      vertex 8.090169906616211 -5.877852439880371 0
      vertex 8.090169906616211 -5.877852439880371 169
    endloop
  endfacet
  facet normal 0.7431445790419063 -0.6691308800530937 0
    outer loop
      vertex 8.090169906616211 -5.877852439880371 0
      vertex 6.691305160522461 -7.431447982788086 169
      vertex 6.691305160522461 -7.431447982788086 0
    endloop
  endfacet
  facet normal 0.7431445790419065 -0.6691308800530937 0
    outer loop
      vertex 6.691305160522461 -7.431447982788086 200
      vertex 8.090169906616211 -5.877852439880371 199
      vertex 8.090169906616211 -5.877852439880371 200
    endloop
  endfacet
  facet normal 0.7431445790419065 -0.6691308800530937 0
    outer loop
      vertex 8.090169906616211 -5.877852439880371 199
      vertex 6.691305160522461 -7.431447982788086 200
      vertex 6.691305160522461 -7.431447982788086 199
    endloop
  endfacet
  facet normal 0.9945218481616123 -0.10452891240805602 0
    outer loop
      vertex 9.781475067138672 -2.0791168212890625 169
      vertex 10 0 0
      vertex 10 0 169
    endloop
  endfacet
  facet normal 0.9945218481616123 -0.10452891240805602 0
    outer loop
      vertex 10 0 0
      vertex 9.781475067138672 -2.0791168212890625 169
      vertex 9.781475067138672 -2.0791168212890625 0
    endloop
  endfacet
  facet normal 0.9945218481616123 -0.10452891240805602 0
    outer loop
      vertex 9.781475067138672 -2.0791168212890625 200
      vertex 10 0 199
      vertex 10 0 200
    endloop
  endfacet
  facet normal 0.9945218481616123 -0.10452891240805602 0
    outer loop
      vertex 10 0 199
      vertex 9.781475067138672 -2.0791168212890625 200
      vertex 9.781475067138672 -2.0791168212890625 199
    endloop
  endfacet
  facet normal -0.9510565605773598 0.3090168580882972 0
    outer loop
      vertex -9.781475067138672 2.0791168212890625 0
      vertex -9.135454177856445 4.067365646362305 169
      vertex -9.135454177856445 4.067365646362305 0
    endloop
  endfacet
  facet normal -0.9510565605773598 0.3090168580882972 0
    outer loop
      vertex -9.135454177856445 4.067365646362305 169
      vertex -9.781475067138672 2.0791168212890625 0
      vertex -9.781475067138672 2.0791168212890625 169
    endloop
  endfacet
  facet normal -0.9510565605773597 0.3090168580882972 0
    outer loop
      vertex -9.781475067138672 2.0791168212890625 199
      vertex -9.135454177856445 4.067365646362305 200
      vertex -9.135454177856445 4.067365646362305 199
    endloop
  endfacet
  facet normal -0.9510565605773597 0.3090168580882972 0
    outer loop
      vertex -9.135454177856445 4.067365646362305 200
      vertex -9.781475067138672 2.0791168212890625 199
      vertex -9.781475067138672 2.0791168212890625 200
    endloop
  endfacet
  facet normal 0.406736698029106 -0.9135454331758108 0
    outer loop
      vertex 3.090169906616211 -9.510564804077148 0
      vertex 5 -8.660253524780273 169
      vertex 3.090169906616211 -9.510564804077148 169
    endloop
  endfacet
  facet normal 0.406736698029106 -0.9135454331758108 0
    outer loop
      vertex 5 -8.660253524780273 169
      vertex 3.090169906616211 -9.510564804077148 0
      vertex 5 -8.660253524780273 0
    endloop
  endfacet
  facet normal 0.40673669802910606 -0.9135454331758109 0
    outer loop
      vertex 3.090169906616211 -9.510564804077148 199
      vertex 5 -8.660253524780273 200
      vertex 3.090169906616211 -9.510564804077148 200
    endloop
  endfacet
  facet normal 0.40673669802910606 -0.9135454331758109 0
    outer loop
      vertex 5 -8.660253524780273 200
      vertex 3.090169906616211 -9.510564804077148 199
      vertex 5 -8.660253524780273 199
    endloop
  endfacet
  facet normal -0.20791142651908356 0.9781476569121861 0
    outer loop
      vertex -1.0452842712402344 9.945218086242676 199
      vertex -3.090169906616211 9.510564804077148 200
      vertex -1.0452842712402344 9.945218086242676 200
    endloop
  endfacet
  facet normal -0.20791142651908356 0.9781476569121861 0
    outer loop
      vertex -3.090169906616211 9.510564804077148 200
      vertex -1.0452842712402344 9.945218086242676 199
      vertex -3.090169906616211 9.510564804077148 199
    endloop
  endfacet
  facet normal -0.20791142651908356 0.9781476569121862 0
    outer loop
      vertex -1.0452842712402344 9.945218086242676 0
      vertex -3.090169906616211 9.510564804077148 169
      vertex -1.0452842712402344 9.945218086242676 169
    endloop
  endfacet
  facet normal -0.20791142651908356 0.9781476569121862 0
    outer loop
      vertex -3.090169906616211 9.510564804077148 169
      vertex -1.0452842712402344 9.945218086242676 0
      vertex -3.090169906616211 9.510564804077148 0
    endloop
  endfacet
  facet normal 0.40673669802910606 0.9135454331758109 0
    outer loop
      vertex 5 8.660253524780273 199
      vertex 3.090169906616211 9.510564804077148 200
      vertex 5 8.660253524780273 200
    endloop
  endfacet
  facet normal 0.40673669802910606 0.9135454331758109 0
    outer loop
      vertex 3.090169906616211 9.510564804077148 200
      vertex 5 8.660253524780273 199
      vertex 3.090169906616211 9.510564804077148 199
    endloop
  endfacet
  facet normal 0.406736698029106 0.9135454331758108 0
    outer loop
      vertex 5 8.660253524780273 0
      vertex 3.090169906616211 9.510564804077148 169
      vertex 5 8.660253524780273 169
    endloop
  endfacet
  facet normal 0.406736698029106 0.9135454331758108 0
    outer loop
      vertex 3.090169906616211 9.510564804077148 169
      vertex 5 8.660253524780273 0
      vertex 3.090169906616211 9.510564804077148 0
    endloop
  endfacet
  facet normal 0.7431445790419065 0.6691308800530937 0
    outer loop
      vertex 8.090169906616211 5.877852439880371 200
      vertex 6.691305160522461 7.431447982788086 199
      vertex 6.691305160522461 7.431447982788086 200
    endloop
  endfacet
  facet normal 0.7431445790419065 0.6691308800530937 0
    outer loop
      vertex 6.691305160522461 7.431447982788086 199
      vertex 8.090169906616211 5.877852439880371 200
      vertex 8.090169906616211 5.877852439880371 199
    endloop
  endfacet
  facet normal 0.7431445790419063 0.6691308800530937 0
    outer loop
      vertex 8.090169906616211 5.877852439880371 169
      vertex 6.691305160522461 7.431447982788086 0
      vertex 6.691305160522461 7.431447982788086 169
    endloop
  endfacet
  facet normal 0.7431445790419063 0.6691308800530937 0
    outer loop
      vertex 6.691305160522461 7.431447982788086 0
      vertex 8.090169906616211 5.877852439880371 169
      vertex 8.090169906616211 5.877852439880371 0
    endloop
  endfacet
  facet normal 0.9510565605773597 -0.3090168580882972 0
    outer loop
      vertex 9.135454177856445 -4.067365646362305 200
      vertex 9.781475067138672 -2.0791168212890625 199
      vertex 9.781475067138672 -2.0791168212890625 200
    endloop
  endfacet
  facet normal 0.9510565605773597 -0.3090168580882972 0
    outer loop
      vertex 9.781475067138672 -2.0791168212890625 199
      vertex 9.135454177856445 -4.067365646362305 200
      vertex 9.135454177856445 -4.067365646362305 199
    endloop
  endfacet
  facet normal 0.9510565605773598 -0.3090168580882972 0
    outer loop
      vertex 9.135454177856445 -4.067365646362305 169
      vertex 9.781475067138672 -2.0791168212890625 0
      vertex 9.781475067138672 -2.0791168212890625 169
    endloop
  endfacet
  facet normal 0.9510565605773598 -0.3090168580882972 0
    outer loop
      vertex 9.781475067138672 -2.0791168212890625 0
      vertex 9.135454177856445 -4.067365646362305 169
      vertex 9.135454177856445 -4.067365646362305 0
    endloop
  endfacet
  facet normal -0.9945218481616123 0.10452891240805602 0
    outer loop
      vertex -10 0 199
      vertex -9.781475067138672 2.0791168212890625 200
      vertex -9.781475067138672 2.0791168212890625 199
    endloop
  endfacet
  facet normal -0.9945218481616123 0.10452891240805602 0
    outer loop
      vertex -9.781475067138672 2.0791168212890625 200
      vertex -10 0 199
      vertex -10 0 200
    endloop
  endfacet
  facet normal -0.9945218481616123 0.10452891240805602 0
    outer loop
      vertex -10 0 0
      vertex -9.781475067138672 2.0791168212890625 169
      vertex -9.781475067138672 2.0791168212890625 0
    endloop
  endfacet
  facet normal -0.9945218481616123 0.10452891240805602 0
    outer loop
      vertex -9.781475067138672 2.0791168212890625 169
      vertex -10 0 0
      vertex -10 0 169
    endloop
  endfacet
  facet normal 0.20791142651908356 -0.9781476569121862 0
    outer loop
      vertex 1.0452842712402344 -9.945218086242676 0
      vertex 3.090169906616211 -9.510564804077148 169
      vertex 1.0452842712402344 -9.945218086242676 169
    endloop
  endfacet
  facet normal 0.20791142651908356 -0.9781476569121862 0
    outer loop
      vertex 3.090169906616211 -9.510564804077148 169
      vertex 1.0452842712402344 -9.945218086242676 0
      vertex 3.090169906616211 -9.510564804077148 0
    endloop
  endfacet
  facet normal 0.20791142651908356 -0.9781476569121861 0
    outer loop
      vertex 1.0452842712402344 -9.945218086242676 199
      vertex 3.090169906616211 -9.510564804077148 200
      vertex 1.0452842712402344 -9.945218086242676 200
    endloop
  endfacet
  facet normal 0.20791142651908356 -0.9781476569121861 0
    outer loop
      vertex 3.090169906616211 -9.510564804077148 200
      vertex 1.0452842712402344 -9.945218086242676 199
      vertex 3.090169906616211 -9.510564804077148 199
    endloop
  endfacet
  facet normal -0.587785382231143 -0.8090168999689616 0
    outer loop
      vertex -6.691305160522461 -7.431447982788086 199
      vertex -5 -8.660253524780273 200
      vertex -6.691305160522461 -7.431447982788086 200
    endloop
  endfacet
  facet normal -0.587785382231143 -0.8090168999689616 0
    outer loop
      vertex -5 -8.660253524780273 200
      vertex -6.691305160522461 -7.431447982788086 199
      vertex -5 -8.660253524780273 199
    endloop
  endfacet
  facet normal -0.587785382231143 -0.8090168999689618 0
    outer loop
      vertex -6.691305160522461 -7.431447982788086 0
      vertex -5 -8.660253524780273 169
      vertex -6.691305160522461 -7.431447982788086 169
    endloop
  endfacet
  facet normal -0.587785382231143 -0.8090168999689618 0
    outer loop
      vertex -5 -8.660253524780273 169
      vertex -6.691305160522461 -7.431447982788086 0
      vertex -5 -8.660253524780273 0
    endloop
  endfacet
  facet normal 0.587785382231143 -0.8090168999689618 0
    outer loop
      vertex 5 -8.660253524780273 0
      vertex 6.691305160522461 -7.431447982788086 169
      vertex 5 -8.660253524780273 169
    endloop
  endfacet
  facet normal 0.587785382231143 -0.8090168999689618 0
    outer loop
      vertex 6.691305160522461 -7.431447982788086 169
      vertex 5 -8.660253524780273 0
      vertex 6.691305160522461 -7.431447982788086 0
    endloop
  endfacet
  facet normal 0.587785382231143 -0.8090168999689616 0
    outer loop
      vertex 5 -8.660253524780273 199
      vertex 6.691305160522461 -7.431447982788086 200
      vertex 5 -8.660253524780273 200
    endloop
  endfacet
  facet normal 0.587785382231143 -0.8090168999689616 0
    outer loop
      vertex 6.691305160522461 -7.431447982788086 200
      vertex 5 -8.660253524780273 199
      vertex 6.691305160522461 -7.431447982788086 199
    endloop
  endfacet
  facet normal 0.20791142651908356 0.9781476569121861 0
    outer loop
      vertex 3.090169906616211 9.510564804077148 199
      vertex 1.0452842712402344 9.945218086242676 200
      vertex 3.090169906616211 9.510564804077148 200
    endloop
  endfacet
  facet normal 0.20791142651908356 0.9781476569121861 0
    outer loop
      vertex 1.0452842712402344 9.945218086242676 200
      vertex 3.090169906616211 9.510564804077148 199
      vertex 1.0452842712402344 9.945218086242676 199
    endloop
  endfacet
  facet normal 0.20791142651908356 0.9781476569121862 0
    outer loop
      vertex 3.090169906616211 9.510564804077148 0
      vertex 1.0452842712402344 9.945218086242676 169
      vertex 3.090169906616211 9.510564804077148 169
    endloop
  endfacet
  facet normal 0.20791142651908356 0.9781476569121862 0
    outer loop
      vertex 1.0452842712402344 9.945218086242676 169
      vertex 3.090169906616211 9.510564804077148 0
      vertex 1.0452842712402344 9.945218086242676 0
    endloop
  endfacet
  facet normal -0.9510565605773598 -0.3090168580882972 0
    outer loop
      vertex -9.135454177856445 -4.067365646362305 0
      vertex -9.781475067138672 -2.0791168212890625 169
      vertex -9.781475067138672 -2.0791168212890625 0
    endloop
  endfacet
  facet normal -0.9510565605773598 -0.3090168580882972 0
    outer loop
      vertex -9.781475067138672 -2.0791168212890625 169
      vertex -9.135454177856445 -4.067365646362305 0
      vertex -9.135454177856445 -4.067365646362305 169
    endloop
  endfacet
  facet normal -0.9510565605773597 -0.3090168580882972 0
    outer loop
      vertex -9.135454177856445 -4.067365646362305 199
      vertex -9.781475067138672 -2.0791168212890625 200
      vertex -9.781475067138672 -2.0791168212890625 199
    endloop
  endfacet
  facet normal -0.9510565605773597 -0.3090168580882972 0
    outer loop
      vertex -9.781475067138672 -2.0791168212890625 200
      vertex -9.135454177856445 -4.067365646362305 199
      vertex -9.135454177856445 -4.067365646362305 200
    endloop
  endfacet
  facet normal -0.8660255625183251 -0.49999972506474305 0
    outer loop
      vertex -8.090169906616211 -5.877852439880371 199
      vertex -9.135454177856445 -4.067365646362305 200
      vertex -9.135454177856445 -4.067365646362305 199
    endloop
  endfacet
  facet normal -0.8660255625183251 -0.49999972506474305 0
    outer loop
      vertex -9.135454177856445 -4.067365646362305 200
      vertex -8.090169906616211 -5.877852439880371 199
      vertex -8.090169906616211 -5.877852439880371 200
    endloop
  endfacet
  facet normal -0.8660255625183251 -0.49999972506474305 0
    outer loop
      vertex -8.090169906616211 -5.877852439880371 0
      vertex -9.135454177856445 -4.067365646362305 169
      vertex -9.135454177856445 -4.067365646362305 0
    endloop
  endfacet
  facet normal -0.8660255625183251 -0.49999972506474305 0
    outer loop
      vertex -9.135454177856445 -4.067365646362305 169
      vertex -8.090169906616211 -5.877852439880371 0
      vertex -8.090169906616211 -5.877852439880371 169
    endloop
  endfacet
  facet normal -0.7431445790419065 -0.6691308800530937 0
    outer loop
      vertex -6.691305160522461 -7.431447982788086 199
      vertex -8.090169906616211 -5.877852439880371 200
      vertex -8.090169906616211 -5.877852439880371 199
    endloop
  endfacet
  facet normal -0.7431445790419065 -0.6691308800530937 0
    outer loop
      vertex -8.090169906616211 -5.877852439880371 200
      vertex -6.691305160522461 -7.431447982788086 199
      vertex -6.691305160522461 -7.431447982788086 200
    endloop
  endfacet
  facet normal -0.7431445790419063 -0.6691308800530937 0
    outer loop
      vertex -6.691305160522461 -7.431447982788086 0
      vertex -8.090169906616211 -5.877852439880371 169
      vertex -8.090169906616211 -5.877852439880371 0
    endloop
  endfacet
  facet normal -0.7431445790419063 -0.6691308800530937 0
    outer loop
      vertex -8.090169906616211 -5.877852439880371 169
      vertex -6.691305160522461 -7.431447982788086 0
      vertex -6.691305160522461 -7.431447982788086 169
    endloop
  endfacet
  facet normal 0 0 -1
    outer loop
      vertex 9.781475067138672 -2.0791168212890625 0
      vertex 9.781475067138672 2.0791168212890625 0
      vertex 10 0 0
    endloop
  endfacet
  facet normal 0 0 -1
    outer loop
      vertex 9.135454177856445 -4.067365646362305 0
      vertex 9.781475067138672 2.0791168212890625 0
      vertex 9.781475067138672 -2.0791168212890625 0
    endloop
  endfacet
  facet normal 0 0 -1
    outer loop
      vertex 9.135454177856445 -4.067365646362305 0
      vertex 9.135454177856445 4.067365646362305 0
      vertex 9.781475067138672 2.0791168212890625 0
    endloop
  endfacet
  facet normal 0 0 -1
    outer loop
      vertex 8.090169906616211 -5.877852439880371 0
      vertex 9.135454177856445 4.067365646362305 0
      vertex 9.135454177856445 -4.067365646362305 0
    endloop
  endfacet
  facet normal 0 0 -1
    outer loop
      vertex 8.090169906616211 -5.877852439880371 0
      vertex 8.090169906616211 5.877852439880371 0
      vertex 9.135454177856445 4.067365646362305 0
    endloop
  endfacet
  facet normal 0 0 -1
    outer loop
      vertex 6.691305160522461 -7.431447982788086 0
      vertex 8.090169906616211 5.877852439880371 0
      vertex 8.090169906616211 -5.877852439880371 0
    endloop
  endfacet
  facet normal 0 0 -1
    outer loop
      vertex 6.691305160522461 -7.431447982788086 0
      vertex 6.691305160522461 7.431447982788086 0
      vertex 8.090169906616211 5.877852439880371 0
    endloop
  endfacet
  facet normal 0 0 -1
    outer loop
      vertex 5 -8.660253524780273 0
      vertex 6.691305160522461 7.431447982788086 0
      vertex 6.691305160522461 -7.431447982788086 0
    endloop
  endfacet
  facet normal 0 0 -1
    outer loop
      vertex 5 -8.660253524780273 0
      vertex 5 8.660253524780273 0
      vertex 6.691305160522461 7.431447982788086 0
    endloop
  endfacet
  facet normal 0 0 -1
    outer loop
      vertex 3.090169906616211 -9.510564804077148 0
      vertex 5 8.660253524780273 0
      vertex 5 -8.660253524780273 0
    endloop
  endfacet
  facet normal 0 0 -1
    outer loop
      vertex 3.090169906616211 -9.510564804077148 0
      vertex 3.090169906616211 9.510564804077148 0
      vertex 5 8.660253524780273 0
    endloop
  endfacet
  facet normal 0 0 -1
    outer loop
      vertex 1.0452842712402344 -9.945218086242676 0
      vertex 3.090169906616211 9.510564804077148 0
      vertex 3.090169906616211 -9.510564804077148 0
    endloop
  endfacet
  facet normal 0 0 -1
    outer loop
      vertex 1.0452842712402344 -9.945218086242676 0
      vertex 1.0452842712402344 9.945218086242676 0
      vertex 3.090169906616211 9.510564804077148 0
    endloop
  endfacet
  facet normal 0 0 -1
    outer loop
      vertex -1.0452842712402344 -9.945218086242676 0
      vertex 1.0452842712402344 9.945218086242676 0
      vertex 1.0452842712402344 -9.945218086242676 0
    endloop
  endfacet
  facet normal 0 0 -1
    outer loop
      vertex -1.0452842712402344 -9.945218086242676 0
      vertex -1.0452842712402344 9.945218086242676 0
      vertex 1.0452842712402344 9.945218086242676 0
    endloop
  endfacet
  facet normal 0 0 -1
    outer loop
      vertex -3.090169906616211 -9.510564804077148 0
      vertex -1.0452842712402344 9.945218086242676 0
      vertex -1.0452842712402344 -9.945218086242676 0
    endloop
  endfacet
  facet normal 0 0 -1
    outer loop
      vertex -3.090169906616211 -9.510564804077148 0
      vertex -3.090169906616211 9.510564804077148 0
      vertex -1.0452842712402344 9.945218086242676 0
    endloop
  endfacet
  facet normal 0 0 -1
    outer loop
      vertex -5 -8.660253524780273 0
      vertex -3.090169906616211 9.510564804077148 0
      vertex -3.090169906616211 -9.510564804077148 0
    endloop
  endfacet
  facet normal 0 0 -1
    outer loop
      vertex -5 -8.660253524780273 0
      vertex -5 8.660253524780273 0
      vertex -3.090169906616211 9.510564804077148 0
    endloop
  endfacet
  facet normal 0 0 -1
    outer loop
      vertex -6.691305160522461 -7.431447982788086 0
      vertex -5 8.660253524780273 0
      vertex -5 -8.660253524780273 0
    endloop
  endfacet
  facet normal 0 0 -1
    outer loop
      vertex -6.691305160522461 -7.431447982788086 0
      vertex -6.691305160522461 7.431447982788086 0
      vertex -5 8.660253524780273 0
    endloop
  endfacet
  facet normal 0 0 -1
    outer loop
      vertex -8.090169906616211 -5.877852439880371 0
      vertex -6.691305160522461 7.431447982788086 0
      vertex -6.691305160522461 -7.431447982788086 0
    endloop
  endfacet
  facet normal 0 0 -1
    outer loop
      vertex -8.090169906616211 -5.877852439880371 0
      vertex -8.090169906616211 5.877852439880371 0
      vertex -6.691305160522461 7.431447982788086 0
    endloop
  endfacet
  facet normal 0 0 -1
    outer loop
      vertex -9.135454177856445 -4.067365646362305 0
      vertex -8.090169906616211 5.877852439880371 0
      vertex -8.090169906616211 -5.877852439880371 0
    endloop
  endfacet
  facet normal 0 0 -1
    outer loop
      vertex -9.135454177856445 -4.067365646362305 0
      vertex -9.135454177856445 4.067365646362305 0
      vertex -8.090169906616211 5.877852439880371 0
    endloop
  endfacet
  facet normal 0 0 -1
    outer loop
      vertex -9.781475067138672 -2.0791168212890625 0
      vertex -9.135454177856445 4.067365646362305 0
      vertex -9.135454177856445 -4.067365646362305 0
    endloop
  endfacet
  facet normal 0 0 -1
    outer loop
      vertex -9.781475067138672 -2.0791168212890625 0
      vertex -9.781475067138672 2.0791168212890625 0
      vertex -9.135454177856445 4.067365646362305 0
    endloop
  endfacet
  facet normal 0 0 -1
    outer loop
      vertex -9.781475067138672 2.0791168212890625 0
      vertex -9.781475067138672 -2.0791168212890625 0
      vertex -10 0 0
    endloop
  endfacet
  facet normal -0.40673669802910606 0.9135454331758109 0
    outer loop
      vertex -3.090169906616211 9.510564804077148 199
      vertex -5 8.660253524780273 200
      vertex -3.090169906616211 9.510564804077148 200
    endloop
  endfacet
  facet normal -0.40673669802910606 0.9135454331758109 0
    outer loop
      vertex -5 8.660253524780273 200
      vertex -3.090169906616211 9.510564804077148 199
      vertex -5 8.660253524780273 199
    endloop
  endfacet
  facet normal -0.406736698029106 0.9135454331758108 0
    outer loop
      vertex -3.090169906616211 9.510564804077148 0
      vertex -5 8.660253524780273 169
      vertex -3.090169906616211 9.510564804077148 169
    endloop
  endfacet
  facet normal -0.406736698029106 0.9135454331758108 0
    outer loop
      vertex -5 8.660253524780273 169
      vertex -3.090169906616211 9.510564804077148 0
      vertex -5 8.660253524780273 0
    endloop
  endfacet
  facet normal 0 1 0
    outer loop
      vertex 1.0452842712402344 9.945218086242676 199
      vertex -1.0452842712402344 9.945218086242676 200
      vertex 1.0452842712402344 9.945218086242676 200
    endloop
  endfacet
  facet normal 0 1 0
    outer loop
      vertex -1.0452842712402344 9.945218086242676 200
      vertex 1.0452842712402344 9.945218086242676 199
      vertex -1.0452842712402344 9.945218086242676 199
    endloop
  endfacet
  facet normal 0 1 0
    outer loop
      vertex 1.0452842712402344 9.945218086242676 0
      vertex -1.0452842712402344 9.945218086242676 169
      vertex 1.0452842712402344 9.945218086242676 169
    endloop
  endfacet
  facet normal 0 1 0
    outer loop
      vertex -1.0452842712402344 9.945218086242676 169
      vertex 1.0452842712402344 9.945218086242676 0
      vertex -1.0452842712402344 9.945218086242676 0
    endloop
  endfacet
  facet normal -0.40673669802910606 -0.9135454331758109 0
    outer loop
      vertex -5 -8.660253524780273 199
      vertex -3.090169906616211 -9.510564804077148 200
      vertex -5 -8.660253524780273 200
    endloop
  endfacet
  facet normal -0.40673669802910606 -0.9135454331758109 0
    outer loop
      vertex -3.090169906616211 -9.510564804077148 200
      vertex -5 -8.660253524780273 199
      vertex -3.090169906616211 -9.510564804077148 199
    endloop
  endfacet
  facet normal -0.406736698029106 -0.9135454331758108 0
    outer loop
      vertex -5 -8.660253524780273 0
      vertex -3.090169906616211 -9.510564804077148 169
      vertex -5 -8.660253524780273 169
    endloop
  endfacet
  facet normal -0.406736698029106 -0.9135454331758108 0
    outer loop
      vertex -3.090169906616211 -9.510564804077148 169
      vertex -5 -8.660253524780273 0
      vertex -3.090169906616211 -9.510564804077148 0
    endloop
  endfacet
  facet normal -0.20791142651908356 -0.9781476569121861 0
    outer loop
      vertex -3.090169906616211 -9.510564804077148 199
      vertex -1.0452842712402344 -9.945218086242676 200
      vertex -3.090169906616211 -9.510564804077148 200
    endloop
  endfacet
  facet normal -0.20791142651908356 -0.9781476569121861 0
    outer loop
      vertex -1.0452842712402344 -9.945218086242676 200
      vertex -3.090169906616211 -9.510564804077148 199
      vertex -1.0452842712402344 -9.945218086242676 199
    endloop
  endfacet
  facet normal -0.20791142651908356 -0.9781476569121862 0
    outer loop
      vertex -3.090169906616211 -9.510564804077148 0
      vertex -1.0452842712402344 -9.945218086242676 169
      vertex -3.090169906616211 -9.510564804077148 169
    endloop
  endfacet
  facet normal -0.20791142651908356 -0.9781476569121862 0
    outer loop
      vertex -1.0452842712402344 -9.945218086242676 169
      vertex -3.090169906616211 -9.510564804077148 0
      vertex -1.0452842712402344 -9.945218086242676 0
    endloop
  endfacet
  facet normal 1 0 0
    outer loop
      vertex 15 -60.5 199
      vertex 15 60.5 169
      vertex 15 60.5 199
    endloop
  endfacet
  facet normal 1 0 0
    outer loop
      vertex 15 60.5 169
      vertex 15 -60.5 199
      vertex 15 -60.5 169
    endloop
  endfacet
  facet normal 0 0 1
    outer loop
      vertex 15 60.5 199
      vertex 10 0 199
      vertex 15 -60.5 199
    endloop
  endfacet
  facet normal 0 0 1
    outer loop
      vertex 15 60.5 199
      vertex 9.781475067138672 2.0791168212890625 199
      vertex 10 0 199
    endloop
  endfacet
  facet normal 0 0 1
    outer loop
      vertex 15 60.5 199
      vertex 9.135454177856445 4.067365646362305 199
      vertex 9.781475067138672 2.0791168212890625 199
    endloop
  endfacet
  facet normal 0 0 1
    outer loop
      vertex 15 60.5 199
      vertex 8.090169906616211 5.877852439880371 199
      vertex 9.135454177856445 4.067365646362305 199
    endloop
  endfacet
  facet normal 0 0 1
    outer loop
      vertex 15 60.5 199
      vertex 6.691305160522461 7.431447982788086 199
      vertex 8.090169906616211 5.877852439880371 199
    endloop
  endfacet
  facet normal 0 0 1
    outer loop
      vertex 15 60.5 199
      vertex 5 8.660253524780273 199
      vertex 6.691305160522461 7.431447982788086 199
    endloop
  endfacet
  facet normal 0 0 1
    outer loop
      vertex 15 60.5 199
      vertex 3.090169906616211 9.510564804077148 199
      vertex 5 8.660253524780273 199
    endloop
  endfacet
  facet normal 0 0 1
    outer loop
      vertex 15 60.5 199
      vertex 1.0452842712402344 9.945218086242676 199
      vertex 3.090169906616211 9.510564804077148 199
    endloop
  endfacet
  facet normal 0 0 1
    outer loop
      vertex 15 60.5 199
      vertex -1.0452842712402344 9.945218086242676 199
      vertex 1.0452842712402344 9.945218086242676 199
    endloop
  endfacet
  facet normal 0 0 1
    outer loop
      vertex -15 60.5 199
      vertex -1.0452842712402344 9.945218086242676 199
      vertex 15 60.5 199
    endloop
  endfacet
  facet normal 0 0 1
    outer loop
      vertex -1.0452842712402344 9.945218086242676 199
      vertex -15 60.5 199
      vertex -3.090169906616211 9.510564804077148 199
    endloop
  endfacet
  facet normal 0 0 1
    outer loop
      vertex -3.090169906616211 9.510564804077148 199
      vertex -15 60.5 199
      vertex -5 8.660253524780273 199
    endloop
  endfacet
  facet normal 0 0 1
    outer loop
      vertex -5 8.660253524780273 199
      vertex -15 60.5 199
      vertex -6.691305160522461 7.431447982788086 199
    endloop
  endfacet
  facet normal 0 0 1
    outer loop
      vertex -6.691305160522461 7.431447982788086 199
      vertex -15 60.5 199
      vertex -8.090169906616211 5.877852439880371 199
    endloop
  endfacet
  facet normal 0 0 1
    outer loop
      vertex -9.781475067138672 2.0791168212890625 199
      vertex -15 60.5 199
      vertex -10 0 199
    endloop
  endfacet
  facet normal 0 0 1
    outer loop
      vertex -9.135454177856445 4.067365646362305 199
      vertex -15 60.5 199
      vertex -9.781475067138672 2.0791168212890625 199
    endloop
  endfacet
  facet normal 0 0 1
    outer loop
      vertex -8.090169906616211 5.877852439880371 199
      vertex -15 60.5 199
      vertex -9.135454177856445 4.067365646362305 199
    endloop
  endfacet
  facet normal 0 0 1
    outer loop
      vertex 9.781475067138672 -2.0791168212890625 199
      vertex 15 -60.5 199
      vertex 10 0 199
    endloop
  endfacet
  facet normal 0 0 1
    outer loop
      vertex 9.135454177856445 -4.067365646362305 199
      vertex 15 -60.5 199
      vertex 9.781475067138672 -2.0791168212890625 199
    endloop
  endfacet
  facet normal 0 0 1
    outer loop
      vertex 8.090169906616211 -5.877852439880371 199
      vertex 15 -60.5 199
      vertex 9.135454177856445 -4.067365646362305 199
    endloop
  endfacet
  facet normal 0 0 1
    outer loop
      vertex 6.691305160522461 -7.431447982788086 199
      vertex 15 -60.5 199
      vertex 8.090169906616211 -5.877852439880371 199
    endloop
  endfacet
  facet normal 0 0 1
    outer loop
      vertex 5 -8.660253524780273 199
      vertex 15 -60.5 199
      vertex 6.691305160522461 -7.431447982788086 199
    endloop
  endfacet
  facet normal 0 0 1
    outer loop
      vertex 3.090169906616211 -9.510564804077148 199
      vertex 15 -60.5 199
      vertex 5 -8.660253524780273 199
    endloop
  endfacet
  facet normal 0 0 1
    outer loop
      vertex 1.0452842712402344 -9.945218086242676 199
      vertex 15 -60.5 199
      vertex 3.090169906616211 -9.510564804077148 199
    endloop
  endfacet
  facet normal 0 0 1
    outer loop
      vertex -1.0452842712402344 -9.945218086242676 199
      vertex 15 -60.5 199
      vertex 1.0452842712402344 -9.945218086242676 199
    endloop
  endfacet
  facet normal 0 0 1
    outer loop
      vertex -15 -60.5 199
      vertex -1.0452842712402344 -9.945218086242676 199
      vertex -3.090169906616211 -9.510564804077148 199
    endloop
  endfacet
  facet normal 0 0 1
    outer loop
      vertex -15 -60.5 199
      vertex -3.090169906616211 -9.510564804077148 199
      vertex -5 -8.660253524780273 199
    endloop
  endfacet
  facet normal 0 0 1
    outer loop
      vertex -15 -60.5 199
      vertex -5 -8.660253524780273 199
      vertex -6.691305160522461 -7.431447982788086 199
    endloop
  endfacet
  facet normal 0 0 1
    outer loop
      vertex -15 -60.5 199
      vertex -6.691305160522461 -7.431447982788086 199
      vertex -8.090169906616211 -5.877852439880371 199
    endloop
  endfacet
  facet normal 0 0 1
    outer loop
      vertex -15 -60.5 199
      vertex -8.090169906616211 -5.877852439880371 199
      vertex -9.135454177856445 -4.067365646362305 199
    endloop
  endfacet
  facet normal 0 0 1
    outer loop
      vertex -1.0452842712402344 -9.945218086242676 199
      vertex -15 -60.5 199
      vertex 15 -60.5 199
    endloop
  endfacet
  facet normal 0 0 1
    outer loop
      vertex -9.781475067138672 -2.0791168212890625 199
      vertex -15 -60.5 199
      vertex -9.135454177856445 -4.067365646362305 199
    endloop
  endfacet
  facet normal 0 0 1
    outer loop
      vertex -10 0 199
      vertex -15 -60.5 199
      vertex -9.781475067138672 -2.0791168212890625 199
    endloop
  endfacet
  facet normal 0 0 1
    outer loop
      vertex -15 -60.5 199
      vertex -10 0 199
      vertex -15 60.5 199
    endloop
  endfacet
  facet normal 0 0 -1
    outer loop
      vertex 15 -60.5 169
      vertex 10 0 169
      vertex 15 60.5 169
    endloop
  endfacet
  facet normal 0 0 -1
    outer loop
      vertex 15 -60.5 169
      vertex 9.781475067138672 -2.0791168212890625 169
      vertex 10 0 169
    endloop
  endfacet
  facet normal 0 0 -1
    outer loop
      vertex 15 -60.5 169
      vertex 9.135454177856445 -4.067365646362305 169
      vertex 9.781475067138672 -2.0791168212890625 169
    endloop
  endfacet
  facet normal 0 0 -1
    outer loop
      vertex 15 -60.5 169
      vertex 8.090169906616211 -5.877852439880371 169
      vertex 9.135454177856445 -4.067365646362305 169
    endloop
  endfacet
  facet normal 0 0 -1
    outer loop
      vertex 15 -60.5 169
      vertex 6.691305160522461 -7.431447982788086 169
      vertex 8.090169906616211 -5.877852439880371 169
    endloop
  endfacet
  facet normal 0 0 -1
    outer loop
      vertex 15 -60.5 169
      vertex 5 -8.660253524780273 169
      vertex 6.691305160522461 -7.431447982788086 169
    endloop
  endfacet
  facet normal 0 0 -1
    outer loop
      vertex 15 -60.5 169
      vertex 3.090169906616211 -9.510564804077148 169
      vertex 5 -8.660253524780273 169
    endloop
  endfacet
  facet normal 0 0 -1
    outer loop
      vertex 15 -60.5 169
      vertex 1.0452842712402344 -9.945218086242676 169
      vertex 3.090169906616211 -9.510564804077148 169
    endloop
  endfacet
  facet normal 0 0 -1
    outer loop
      vertex 15 -60.5 169
      vertex -1.0452842712402344 -9.945218086242676 169
      vertex 1.0452842712402344 -9.945218086242676 169
    endloop
  endfacet
  facet normal 0 0 -1
    outer loop
      vertex -15 -60.5 169
      vertex -1.0452842712402344 -9.945218086242676 169
      vertex 15 -60.5 169
    endloop
  endfacet
  facet normal 0 0 -1
    outer loop
      vertex -1.0452842712402344 -9.945218086242676 169
      vertex -15 -60.5 169
      vertex -3.090169906616211 -9.510564804077148 169
    endloop
  endfacet
  facet normal 0 0 -1
    outer loop
      vertex -3.090169906616211 -9.510564804077148 169
      vertex -15 -60.5 169
      vertex -5 -8.660253524780273 169
    endloop
  endfacet
  facet normal 0 0 -1
    outer loop
      vertex -5 -8.660253524780273 169
      vertex -15 -60.5 169
      vertex -6.691305160522461 -7.431447982788086 169
    endloop
  endfacet
  facet normal 0 0 -1
    outer loop
      vertex -6.691305160522461 -7.431447982788086 169
      vertex -15 -60.5 169
      vertex -8.090169906616211 -5.877852439880371 169
    endloop
  endfacet
  facet normal 0 0 -1
    outer loop
      vertex -9.781475067138672 -2.0791168212890625 169
      vertex -15 -60.5 169
      vertex -10 0 169
    endloop
  endfacet
  facet normal 0 0 -1
    outer loop
      vertex -9.135454177856445 -4.067365646362305 169
      vertex -15 -60.5 169
      vertex -9.781475067138672 -2.0791168212890625 169
    endloop
  endfacet
  facet normal 0 0 -1
    outer loop
      vertex -8.090169906616211 -5.877852439880371 169
      vertex -15 -60.5 169
      vertex -9.135454177856445 -4.067365646362305 169
    endloop
  endfacet
  facet normal 0 0 -1
    outer loop
      vertex 9.781475067138672 2.0791168212890625 169
      vertex 15 60.5 169
      vertex 10 0 169
    endloop
  endfacet
  facet normal 0 0 -1
    outer loop
      vertex 9.135454177856445 4.067365646362305 169
      vertex 15 60.5 169
      vertex 9.781475067138672 2.0791168212890625 169
    endloop
  endfacet
  facet normal 0 0 -1
    outer loop
      vertex 8.090169906616211 5.877852439880371 169
      vertex 15 60.5 169
      vertex 9.135454177856445 4.067365646362305 169
    endloop
  endfacet
  facet normal 0 0 -1
    outer loop
      vertex 6.691305160522461 7.431447982788086 169
      vertex 15 60.5 169
      vertex 8.090169906616211 5.877852439880371 169
    endloop
  endfacet
  facet normal 0 0 -1
    outer loop
      vertex 5 8.660253524780273 169
      vertex 15 60.5 169
      vertex 6.691305160522461 7.431447982788086 169
    endloop
  endfacet
  facet normal 0 0 -1
    outer loop
      vertex 3.090169906616211 9.510564804077148 169
      vertex 15 60.5 169
      vertex 5 8.660253524780273 169
    endloop
  endfacet
  facet normal 0 0 -1
    outer loop
      vertex 1.0452842712402344 9.945218086242676 169
      vertex 15 60.5 169
      vertex 3.090169906616211 9.510564804077148 169
    endloop
  endfacet
  facet normal 0 0 -1
    outer loop
      vertex -1.0452842712402344 9.945218086242676 169
      vertex 15 60.5 169
      vertex 1.0452842712402344 9.945218086242676 169
    endloop
  endfacet
  facet normal 0 0 -1
    outer loop
      vertex -15 60.5 169
      vertex -1.0452842712402344 9.945218086242676 169
      vertex -3.090169906616211 9.510564804077148 169
    endloop
  endfacet
  facet normal 0 0 -1
    outer loop
      vertex -15 60.5 169
      vertex -3.090169906616211 9.510564804077148 169
      vertex -5 8.660253524780273 169
    endloop
  endfacet
  facet normal 0 0 -1
    outer loop
      vertex -15 60.5 169
      vertex -5 8.660253524780273 169
      vertex -6.691305160522461 7.431447982788086 169
    endloop
  endfacet
  facet normal 0 0 -1
    outer loop
      vertex -15 60.5 169
      vertex -6.691305160522461 7.431447982788086 169
      vertex -8.090169906616211 5.877852439880371 169
    endloop
  endfacet
  facet normal 0 0 -1
    outer loop
      vertex -15 60.5 169
      vertex -8.090169906616211 5.877852439880371 169
      vertex -9.135454177856445 4.067365646362305 169
    endloop
  endfacet
  facet normal 0 0 -1
    outer loop
      vertex -1.0452842712402344 9.945218086242676 169
      vertex -15 60.5 169
      vertex 15 60.5 169
    endloop
  endfacet
  facet normal 0 0 -1
    outer loop
      vertex -9.781475067138672 2.0791168212890625 169
      vertex -15 60.5 169
      vertex -9.135454177856445 4.067365646362305 169
    endloop
  endfacet
  facet normal 0 0 -1
    outer loop
      vertex -10 0 169
      vertex -15 60.5 169
      vertex -9.781475067138672 2.0791168212890625 169
    endloop
  endfacet
  facet normal 0 0 -1
    outer loop
      vertex -15 60.5 169
      vertex -10 0 169
      vertex -15 -60.5 169
    endloop
  endfacet
  facet normal -1 0 0
    outer loop
      vertex -15 -60.5 169
      vertex -15 60.5 199
      vertex -15 60.5 169
    endloop
  endfacet
  facet normal -1 0 0
    outer loop
      vertex -15 60.5 199
      vertex -15 -60.5 169
      vertex -15 -60.5 199
    endloop
  endfacet
  facet normal 0 1 0
    outer loop
      vertex 15 60.5 169
      vertex -15 60.5 199
      vertex 15 60.5 199
    endloop
  endfacet
  facet normal 0 1 0
    outer loop
      vertex -15 60.5 199
      vertex 15 60.5 169
      vertex -15 60.5 169
    endloop
  endfacet
  facet normal 0 -1 0
    outer loop
      vertex -15 -60.5 169
      vertex 15 -60.5 199
      vertex -15 -60.5 199
    endloop
  endfacet
  facet normal 0 -1 0
    outer loop
      vertex 15 -60.5 199
      vertex -15 -60.5 169
      vertex 15 -60.5 169
    endloop
  endfacet
endsolid OpenSCAD_Model
